<svg xmlns="http://www.w3.org/2000/svg" viewBox="0 0 640 640" role="img" aria-label="NaviSense vest">
  <defs>
    <linearGradient id="body" x1="220" x2="420" y1="80" y2="560" gradientUnits="userSpaceOnUse">
      <stop offset="0" stop-color="#3a444f"/>
      <stop offset=".5" stop-color="#202832"/>
      <stop offset="1" stop-color="#11171e"/>
    </linearGradient>
    <filter id="shadow" x="-25%" y="-20%" width="150%" height="155%">
      <feDropShadow dx="0" dy="26" stdDeviation="24" flood-color="#020326" flood-opacity=".42"/>
    </filter>
  </defs>
  <g filter="url(#shadow)">
    <path d="M174 535c-25-88-23-258 0-353 15-62 54-98 102-118 21 29 35 70 44 118 9-48 23-89 44-118 48 20 87 56 102 118 23 95 25 265 0 353-75 35-217 35-292 0Z" fill="url(#body)" stroke="#4d5966" stroke-width="10" stroke-linejoin="round"/>
    <path d="M270 72c-35 49-55 112-62 184M370 72c35 49 55 112 62 184" fill="none" stroke="#0c1218" stroke-width="34" stroke-linecap="round"/>
    <path d="M198 220c-18 84-17 196 4 280M442 220c18 84 17 196-4 280" fill="none" stroke="#485461" stroke-width="13" stroke-linecap="round"/>
    <path d="M320 198v318" stroke="#0d131a" stroke-width="25" stroke-linecap="round"/>
    <path d="M335 218v260" stroke="#5fa9e8" stroke-width="7" stroke-linecap="round"/>
    <path d="M204 292h232M196 365h248M207 438h226" stroke="#0b1118" stroke-width="23" stroke-linecap="round"/>
    <path d="M204 292h232M196 365h248M207 438h226" stroke="#48535f" stroke-width="7" stroke-linecap="round"/>
    <rect x="456" y="260" width="78" height="126" rx="18" fill="#151c24" stroke="#5fa9e8" stroke-opacity=".34" stroke-width="6"/>
  </g>
</svg>
